<svg aria-hidden="true" style="position:absolute;width:0;height:0;overflow:hidden" xmlns="http://www.w3.org/2000/svg"><defs><symbol id="icon-astronaut" viewBox="0 0 32 32"><path fill="#2196f3" style="fill:var(--color1, #2196f3)" d="M31.974 4.524a.535.535 0 0 0-.427-.362h-.003l-1.911-.278-.855-1.731c-.179-.365-.777-.365-.956 0l-.855 1.731-1.911.278a.534.534 0 0 0-.296.91l1.383 1.348-.326 1.903a.532.532 0 0 0 .774.562l1.709-.899 1.709.899a.534.534 0 0 0 .773-.565v.003l-.326-1.903 1.383-1.348a.535.535 0 0 0 .134-.55l.001.004zm-2.463 1.327a.53.53 0 0 0-.153.472l.191 1.114-1-.526a.525.525 0 0 0-.501.001l.003-.001-1 .526.191-1.114a.53.53 0 0 0-.152-.472l-.811-.79 1.119-.162a.532.532 0 0 0 .402-.292l.5-1.013.5 1.013a.532.532 0 0 0 .402.292l1.119.162-.809.79zm-3.377 14.671h-1.067v1.067h1.067v-1.067zm0 2.134h-1.067v1.066h1.067v-1.066zm1.066-1.067h-1.067v1.067H27.2v-1.067zm-2.133 0H24v1.067h1.067v-1.067zm-2.667 4.8h-1.067v1.067H22.4v-1.067zm0 2.134h-1.067v1.067H22.4v-1.067zm1.067-1.067H22.4v1.067h1.067v-1.067zm-2.133 0h-1.067v1.067h1.067v-1.067zM16 24.256h-1.066v1.067H16v-1.067zm0 2.133h-1.066v1.067H16v-1.067zm1.067-1.067H16v1.067h1.067v-1.067zm-2.133 0h-1.067v1.067h1.067v-1.067zm-9.067-19.2H4.801v1.066h1.066V6.122zm0 2.134H4.801v1.066h1.066V8.256zm1.066-1.067H5.866v1.067h1.066V7.189zm-2.133 0H3.733v1.067H4.8V7.189z"/><path fill="#212121" style="fill:var(--color2, #212121)" d="M24.715 14.16a1.774 1.774 0 0 0-1.179-.703l-.009-.001a1.769 1.769 0 0 0-1.344.355l.004-.003-1.253.96-1.898 1.417-1.358-.541c2.421-1.086 4.113-3.508 4.113-6.32 0-3.823-3.122-6.934-6.961-6.934S7.869 5.5 7.869 9.324c0 1.386.415 2.674 1.12 3.759l-2.768-.024c-.009 0-.016.005-.023.005a.511.511 0 0 0-.159.033l.004-.001c-.013.005-.026.007-.038.013-.006.003-.013.003-.019.006l-3.233 1.596-.001.001-1.893.91a.5.5 0 0 0-.065.036l.001-.001a1.782 1.782 0 0 0-.594 2.306l-.005-.01c.22.424.592.742 1.043.885l.013.003a1.772 1.772 0 0 0 1.388-.133l-.009.005 1.388-.738 2.264-1.169 1.357-.008-5.442 5.415-.001.001-1.339 1.333a1.643 1.643 0 0 0-.491 1.173v.005a1.668 1.668 0 0 0 1.667 1.664h.002a1.67 1.67 0 0 0 1.18-.485l1.314-1.309 1.741-1.3.901.897L4.07 27.28a1.643 1.643 0 0 0-.491 1.173v.004a1.662 1.662 0 0 0 1.666 1.664h.003a1.67 1.67 0 0 0 1.18-.485l4.488-4.472c.007-.006.016-.009.022-.016l5.166-5.658 3.471.494a.474.474 0 0 0 .262-.032c.017-.006.032-.015.049-.023.019-.01.039-.015.058-.027l3.213-2.133c.012-.008.018-.021.029-.03.013-.01.029-.014.041-.026l1.271-1.191c.348-.326.564-.787.564-1.3 0-.4-.132-.769-.355-1.066l.003.005zM2.13 17.77a.706.706 0 0 1-.564.05l.005.001a.717.717 0 0 1-.215-1.258l.002-.001 1.314-.632.449 1.313-.992.527zm3.497-1.828-1.548.8-.255-.746-.184-.537 2.027-1.001-.04 1.484zm15.1-6.62c0 .918-.219 1.785-.599 2.56l-4.181-1.899a1.865 1.865 0 0 0-.782-1.384l-.006-.004 1.464-4.861c2.377.757 4.104 2.975 4.104 5.588zm-11.789 0c0-3.235 2.644-5.867 5.894-5.867.253 0 .5.022.745.053l-1.432 4.753c-.019 0-.037-.006-.057-.006h-.001a1.872 1.872 0 0 0-1.872 1.867 1.873 1.873 0 0 0 1.872 1.867h.001c.695 0 1.295-.383 1.618-.944l3.863 1.755a5.891 5.891 0 0 1-4.737 2.39c-3.25 0-5.894-2.632-5.894-5.867zm5.957.8c0 .441-.362.8-.806.8h-.001a.804.804 0 0 1-.804-.8c0-.441.361-.8.806-.8s.806.359.806.8zM2.464 25.146a.606.606 0 0 1-.855.001.591.591 0 0 1 0-.844l.962-.959.852.848-.959.954zm3.214 3.734a.606.606 0 0 1-.855.001.591.591 0 0 1 0-.844l.963-.959.852.848-.96.955zm3.482-3.469-.001.001-1.765 1.76-.852-.848 1.765-1.757a.527.527 0 0 0 .09-.136c.007-.014.02-.026.026-.04.016-.041.019-.085.026-.128.003-.025.014-.048.014-.073 0-.035-.013-.07-.02-.105-.006-.032-.006-.064-.019-.096a.536.536 0 0 0-.092-.138c-.01-.012-.014-.026-.025-.038h-.001l-.001-.002-1.607-1.6c-.017-.017-.039-.024-.058-.038a.491.491 0 0 0-.084-.056l-.003-.001a.527.527 0 0 0-.09-.031l-.003-.001a.502.502 0 0 0-.101-.02h-.025a.603.603 0 0 0-.075.005h.003c-.036.005-.069.009-.104.021s-.064.027-.094.045c-.02.011-.043.015-.061.029l-1.774 1.324-.901-.897 2.399-2.386 4.36 4.289-.928.919zm6.819-7.017c-.016-.002-.03.004-.046.003l-.027-.001a.562.562 0 0 0-.092.008h.003a.484.484 0 0 0-.187.07l.002-.001a.492.492 0 0 0-.083.061c-.013.011-.028.016-.04.029l-4.698 5.146-4.328-4.256 2.833-2.818a.535.535 0 0 0-.378-.911h-.002l-2.219.013.028-1.607 3.104.027a6.928 6.928 0 0 0 4.978 2.101h.003c.438 0 .864-.046 1.28-.122.04.032.08.064.129.085l2.41.96.152.758.178.886-3.003-.427zm4.041.178-.313-1.558 1.446-1.08.946 1.257-2.08 1.381zm3.753-2.831-.837.785-.931-1.236.831-.637a.735.735 0 0 1 .543-.143.718.718 0 0 1 .621.71.71.71 0 0 1-.226.521z"/><path fill="#212121" style="fill:var(--color2, #212121)" d="m13.602 18.544-2.143-2.134a.53.53 0 0 0-.752 0l-2.143 2.133a.535.535 0 0 0 0 .756l2.142 2.134a.53.53 0 0 0 .752 0l2.143-2.134a.532.532 0 0 0 0-.756zm-2.519 1.759-1.387-1.381 1.386-1.381 1.387 1.381-1.387 1.381zm6.081-15.232-.258 1.036c.071.018 1.738.452 1.738 2.149h1.067c0-2.017-1.666-2.965-2.547-3.184zm2.547 4.251h-1.067v1.066h1.067V9.322z"/></symbol><symbol id="icon-brand" viewBox="0 0 32 32"><path d="M2.41 23.719a.728.728 0 0 1 .187.532.73.73 0 0 1-.069.31l.002-.004a.788.788 0 0 1-.22.281l-.002.002a1.326 1.326 0 0 1-.841.228H0v-3.136h1.441a1.307 1.307 0 0 1 .804.211l-.005-.003a.733.733 0 0 1 .215.263.665.665 0 0 1 .064.324.688.688 0 0 1-.167.479.8.8 0 0 1-.439.246.851.851 0 0 1 .496.269zm-1.725-.473h.616a.63.63 0 0 0 .391-.104.378.378 0 0 0 .104-.137l.001-.002a.34.34 0 0 0 .026-.169v.002a.343.343 0 0 0-.029-.169l.001.002a.38.38 0 0 0-.103-.139l-.001-.001a.628.628 0 0 0-.405-.106H.682v.823zm1.068 1.203a.394.394 0 0 0 .112-.141l.001-.002a.348.348 0 0 0 .033-.15l-.001-.026v.002l.001-.023a.368.368 0 0 0-.035-.156l.001.002a.408.408 0 0 0-.115-.144l-.001-.001a.672.672 0 0 0-.42-.113H.685v.863h.655a.697.697 0 0 0 .414-.109zm3.603.619-.801-1.226h-.301v1.226h-.69v-3.137H4.87a1.36 1.36 0 0 1 .912.269l-.004-.002a.96.96 0 0 1 .31.633c.002.019.002.042.002.066a.935.935 0 0 1-.217.601l.002-.002a1.09 1.09 0 0 1-.617.318l-.006.001.854 1.253h-.75zm-1.103-1.654h.564c.391 0 .588-.158.588-.475l.001-.025a.419.419 0 0 0-.034-.167l.001.003a.47.47 0 0 0-.112-.162.645.645 0 0 0-.389-.13l-.057.002h-.569l.007.955zm4.872 1.022H7.751l-.243.632h-.723l1.261-3.102h.782l1.257 3.102h-.723l-.237-.631zm-.184-.475-.502-1.324-.502 1.324h1.004zm4.902 1.107h-.684l-1.535-2.133v2.133h-.683v-3.137h.683l1.535 2.146v-2.145h.684v3.137zm3.907-.751a1.434 1.434 0 0 1-.62.554 2.143 2.143 0 0 1-.907.199l-.059-.001h-1.215v-3.137h1.218l.057-.001c.328 0 .639.071.919.199l-.014-.006c.262.121.478.312.619.547a1.698 1.698 0 0 1 0 1.646zm-.783-.075c.186-.194.301-.458.302-.749 0-.275-.107-.54-.302-.749a1.252 1.252 0 0 0-.861-.266h-.472v2.031h.476c.024.002.051.002.079.002.295 0 .566-.101.781-.271l-.003.002zM9.554 4.481s8.836 3.054 8.648 7.474v7.475s-8.829-3.056-8.645-7.475l-.003-7.474zm16.52 13.2a12.804 12.804 0 0 1 5.614-1.894v-2.341c-2.322.82-4.292 2.306-5.614 4.235z"/><path d="M25.072 18.387c1.366-2.518 3.734-4.461 6.617-5.43V6.214s-12.583 4.35-12.318 10.645v10.643s.561-.194 1.443-.56c0-.34 0-.683.04-1.028.26-2.922 1.777-5.629 4.217-7.527z"/><path d="M23.875 22.34c.066-.738.214-1.468.441-2.179-1.52 1.639-2.44 3.673-2.631 5.817a8.748 8.748 0 0 0-.034.613 35.148 35.148 0 0 0 2.622-1.267l-.203.099a10.108 10.108 0 0 1-.196-3.082zm.5.038a9.734 9.734 0 0 0 .166 2.854l-.011-.063c3.438-1.884 7.301-4.794 7.152-8.311v-.307c-2.457.252-4.754 1.235-6.541 2.798a9.558 9.558 0 0 0-.764 2.991l-.003.038z"/></symbol><symbol id="icon-clock" viewBox="0 0 32 32"><path fill="#212121" style="fill:var(--color2, #212121)" d="M31.296 15.301C31.295 6.849 24.441-.002 15.988 0S.685 6.855.687 15.308c.002 6.788 4.422 12.543 10.541 14.545l.108.031a.667.667 0 0 0 .529-.065.636.636 0 0 0 .283-.357l3.865-12.25a1.913 1.913 0 1 0-.852-3.63l.011-.005-5.106-5.107a.638.638 0 0 0-.902.902l5.103 5.109a1.847 1.847 0 0 0-.191.826c0 .602.283 1.137.723 1.48l.004.003-3.682 11.673C3.843 25.782.117 17.709 2.797 10.431S13.551-.573 20.829 2.108c7.278 2.681 11.004 10.754 8.323 18.032-1.345 3.581-4.003 6.406-7.374 7.938l-.088.036-.398-1.874a.639.639 0 0 0-1.05-.343l.001-.001-3.837 3.426a.637.637 0 0 0 .227 1.083l.005.001 4.899 1.563a.637.637 0 0 0 .818-.744l.001.004-.391-1.839c5.528-2.374 9.329-7.772 9.329-14.057v-.034.002zm-15.304-.637a.638.638 0 0 1 0 1.276.638.638 0 0 1 0-1.276zm2.1 14.864 2.184-1.948.603 2.84-2.787-.892z"/><path fill="#2196f3" style="fill:var(--color1, #2196f3)" d="M15.354 3.185V4.46a.638.638 0 0 0 1.276 0V3.185a.638.638 0 1 0-1.276 0zM3.876 14.664a.638.638 0 0 0 0 1.276h1.275a.638.638 0 0 0 0-1.276H3.876zm24.232 1.275a.638.638 0 0 0 0-1.276h-1.275a.638.638 0 0 0 0 1.276h1.275z"/></symbol><symbol id="icon-company" viewBox="0 0 32 32"><path d="M5.311 30.414a.093.093 0 0 1 .06.024l.156.15a1.293 1.293 0 0 1-.44.284 1.729 1.729 0 0 1-.624.102c-.2.004-.401-.029-.586-.095a1.274 1.274 0 0 1-.441-.268 1.201 1.201 0 0 1-.285-.414 1.377 1.377 0 0 1-.1-.532 1.23 1.23 0 0 1 .41-.948c.134-.117.294-.209.47-.27.193-.065.397-.097.604-.095.192-.004.383.025.561.087.155.058.297.139.421.24l-.131.16a.153.153 0 0 1-.033.029.094.094 0 0 1-.053.012.127.127 0 0 1-.056-.017l-.071-.042-.098-.055a1.157 1.157 0 0 0-.309-.095 1.386 1.386 0 0 0-.232-.017 1.248 1.248 0 0 0-.434.072 1.006 1.006 0 0 0-.34.2.922.922 0 0 0-.221.319 1.08 1.08 0 0 0-.08.422c-.002.146.024.291.08.428a.93.93 0 0 0 .217.318c.089.087.2.153.325.197.128.046.264.069.403.068.08.001.16-.004.238-.013a.95.95 0 0 0 .515-.219.12.12 0 0 1 .074-.027zM9.827 29.663c.003.181-.033.36-.105.528-.064.153-.164.293-.295.41s-.288.209-.462.269a1.903 1.903 0 0 1-1.189 0 1.362 1.362 0 0 1-.459-.27c-.13-.12-.232-.26-.297-.414a1.379 1.379 0 0 1 0-1.059c.067-.154.168-.296.297-.416.131-.113.287-.201.459-.26a1.875 1.875 0 0 1 1.189 0c.174.061.33.153.461.27a1.224 1.224 0 0 1 .401.941zm-.411 0a1.122 1.122 0 0 0-.074-.424.88.88 0 0 0-.539-.518 1.373 1.373 0 0 0-.864 0 .914.914 0 0 0-.33.2.844.844 0 0 0-.211.318c-.1.277-.1.573 0 .85a.864.864 0 0 0 .541.517c.279.09.585.09.864 0a.871.871 0 0 0 .539-.517c.053-.136.077-.28.074-.424zM12.908 30.108l.041.095c.016-.034.029-.065.045-.095a.84.84 0 0 1 .051-.093l1-1.578c.02-.027.037-.044.056-.049a.252.252 0 0 1 .082-.008h.296v2.567h-.35V28.98a.646.646 0 0 1 0-.088l-1.005 1.6c-.013.024-.033.044-.059.058s-.056.022-.086.022h-.056c-.03 0-.06-.007-.086-.021s-.046-.035-.058-.058l-1.034-1.61v2.06h-.338v-2.562h.296a.279.279 0 0 1 .082.008c.024.01.043.028.055.049l1.02 1.579c.02.029.037.06.051.091zM16.668 29.981v.961h-.391v-2.563h.872c.165-.003.328.016.487.056a.97.97 0 0 1 .344.16c.087.07.153.155.196.251a.777.777 0 0 1 .067.328.74.74 0 0 1-.072.328.73.73 0 0 1-.211.257.988.988 0 0 1-.346.169 1.66 1.66 0 0 1-.472.059l-.473-.007zm0-.276h.473a1.1 1.1 0 0 0 .303-.039.674.674 0 0 0 .219-.11.495.495 0 0 0 .18-.385c.005-.072-.008-.142-.04-.209s-.077-.126-.136-.175a.83.83 0 0 0-.526-.137h-.473v1.056zM21.924 30.946h-.309a.151.151 0 0 1-.086-.024.158.158 0 0 1-.051-.059l-.265-.62h-1.336l-.276.62a.147.147 0 0 1-.137.082h-.309l1.173-2.567h.407l1.189 2.567zm-1.936-.954h1.103l-.465-1.045a1.66 1.66 0 0 1-.088-.241l-.045.135a1.08 1.08 0 0 1-.043.109l-.461 1.043zM23.613 28.391a.156.156 0 0 1 .058.046l1.711 1.935V28.38h.35v2.567h-.196a.193.193 0 0 1-.08-.015.226.226 0 0 1-.063-.047l-1.709-1.933a.646.646 0 0 1 0 .088V30.948h-.35v-2.567h.207a.193.193 0 0 1 .071.012zM28.614 29.925v1.019h-.391v-1.019l-1.081-1.545h.35c.03-.002.06.007.084.022.022.017.04.036.053.057l.677.997c.027.042.051.082.071.119s.035.073.049.109l.051-.11a.934.934 0 0 1 .067-.118l.666-1.004a.265.265 0 0 1 .051-.055.132.132 0 0 1 .084-.025h.354l-1.083 1.553zM12.715 24.072c.17.019.343.034.516.048 2.638-1.025 4.87-2.704 6.416-4.824s2.339-4.591 2.279-7.102l-2.907-2.526c.591 2.673.314 5.436-.799 7.98s-3.019 4.769-5.505 6.425z"/><path d="m11.677 23.954.078.013c2.656-1.651 4.681-3.956 5.813-6.616s1.32-5.557.537-8.311l-4.141-3.598c1.675 2.957 2.349 6.267 1.944 9.544s-1.872 6.387-4.232 8.968zM25.72 15.159c-.703 2.759-2.412 5.246-4.872 7.094a15.565 15.565 0 0 1-2.315 1.444c2.003-.512 3.845-1.416 5.382-2.644s2.729-2.745 3.485-4.437l-1.679-1.458z"/><path d="m25.062 14.752-2.392-2.077c-.046 2.369-.821 4.683-2.245 6.704s-3.445 3.672-5.851 4.785h.011c.536 0 1.072-.028 1.605-.083 2.249-.798 4.237-2.067 5.785-3.695s2.608-3.562 3.085-5.633zM12.023 3.925 9.17 1.443c-2.55.856-4.744 2.361-6.293 4.318S.495 10.036.486 12.411c.009 2.625 1.026 5.172 2.889 7.238s4.466 3.533 7.397 4.169c2.616-2.769 4.148-6.192 4.373-9.769s-.87-7.124-3.124-10.124zM31.652 14.37c-.01-3.114-1.439-6.098-3.973-8.299s-5.969-3.443-9.553-3.452a15.178 15.178 0 0 0-4.843.783l17.465 15.175c.598-1.341.904-2.767.904-4.206z"/></symbol><symbol id="icon-envelope" viewBox="0 0 32 32"><path d="M28.775 4.093H2.976A2.981 2.981 0 0 0-.001 7.07v17.86a2.981 2.981 0 0 0 2.977 2.977h25.799a2.981 2.981 0 0 0 2.977-2.977V7.07a2.981 2.981 0 0 0-2.977-2.977zm0 1.985c.135 0 .264.028.381.077l-13.28 11.51-13.28-11.51a.974.974 0 0 1 .381-.077h25.799zm0 19.844H2.976a.992.992 0 0 1-.992-.992V8.251l13.241 11.476c.173.151.401.243.651.243s.478-.092.652-.244l-.002.001L29.767 8.251V24.93a.992.992 0 0 1-.992.992z"/></symbol><symbol id="icon-fb" viewBox="0 0 32 32"><path d="M20.328 5.312h2.923V.224A36.496 36.496 0 0 0 19.143 0h-.156.008c-4.213 0-7.099 2.65-7.099 7.52V12H7.25v5.688h4.646V32h5.698V17.69h4.462l.707-5.69h-5.168V8.08c0-1.643.443-2.768 2.734-2.768z"/></symbol><symbol id="icon-foster" viewBox="0 0 32 32"><path d="M4.931 13.038H4.93c-.899 0-1.629.648-1.629 1.447v.001c0 .8.729 1.447 1.629 1.447h.001c.899 0 1.629-.648 1.629-1.447v-.001c0-.8-.729-1.448-1.629-1.448zm12.021-.463c-.002-1.11-.5-2.175-1.383-2.96s-2.081-1.227-3.329-1.23c-1.25.002-2.448.444-3.331 1.229s-1.381 1.85-1.384 2.96v6.123s9.428-.933 9.429-6.121v-.001zM0 20.707c.002.773.349 1.513.963 2.059s1.447.854 2.317.856c.869-.002 1.702-.31 2.317-.856s.961-1.286.963-2.058v-4.26s-6.559.65-6.559 4.259zm3.28.764a.944.944 0 0 1-.477-.128.793.793 0 0 1-.314-.338l-.002-.004a.676.676 0 0 1-.048-.445l-.001.004a.739.739 0 0 1 .235-.391.894.894 0 0 1 .434-.208l.005-.001a.98.98 0 0 1 .503.045l-.006-.002c.157.058.291.156.385.281a.706.706 0 0 1 .081.717.779.779 0 0 1-.185.248h-.001a.939.939 0 0 1-.608.225H3.28v-.003zm6.629-.421h-.633v.654h-.33v-1.601h1.042v.267h-.712v.414h.633v.266zm1.584-.11c0 .158-.028.295-.083.414a.627.627 0 0 1-.584.372h-.012.001a.642.642 0 0 1-.595-.365l-.001-.004a.928.928 0 0 1-.087-.396v-.093c0-.158.029-.296.085-.416a.633.633 0 0 1 .597-.373.633.633 0 0 1 .596.373.948.948 0 0 1 .086.414v.071zm-.333-.073c0-.168-.03-.295-.09-.383a.294.294 0 0 0-.244-.131h-.014.001-.012a.292.292 0 0 0-.243.129l-.001.001c-.06.086-.091.212-.091.378v.078c0 .163.03.29.09.38s.146.135.259.135h.013c.1 0 .189-.051.241-.128l.001-.001c.059-.087.089-.214.09-.381v-.078zm1.403.417.001-.009a.17.17 0 0 0-.065-.133h-.001a.82.82 0 0 0-.237-.105 1.77 1.77 0 0 1-.281-.114l.009.004c-.182-.098-.273-.231-.273-.397 0-.086.024-.163.072-.231s.119-.121.21-.16c.092-.038.194-.057.308-.057s.216.021.306.063a.47.47 0 0 1 .282.432h-.33c0-.073-.023-.13-.069-.17s-.111-.062-.194-.062a.298.298 0 0 0-.188.052.16.16 0 0 0-.067.13v.004c0 .052.026.096.078.131s.13.068.232.098c.188.056.324.127.41.21s.129.188.129.312c0 .138-.053.248-.158.326s-.245.118-.423.118a.833.833 0 0 1-.336-.067.545.545 0 0 1-.231-.184l-.001-.001a.476.476 0 0 1-.079-.262v-.011h.33c0 .176.105.265.317.265a.32.32 0 0 0 .184-.047.157.157 0 0 0 .066-.128v-.006zm1.759-.913h-.49v1.333h-.33v-1.333h-.483v-.267h1.303v.267zm1.152.64h-.633v.429h.743v.265h-1.072v-1.601h1.07v.267h-.741v.382h.633v.258zm.895.107h-.262v.586h-.33v-1.601h.595c.189 0 .335.042.437.127s.154.203.154.357a.498.498 0 0 1-.071.274.478.478 0 0 1-.211.172l-.003.001.346.654v.015h-.353l-.3-.585zm-.262-.267h.266a.277.277 0 0 0 .192-.062.227.227 0 0 0 .068-.162v-.013c0-.076-.021-.135-.064-.178s-.108-.065-.197-.065h-.265v.48zm1.998.289v.564h-.33v-1.601h.624c.12 0 .226.022.317.066s.162.106.211.188a.52.52 0 0 1 .073.276c0 .157-.054.281-.161.371s-.256.135-.445.135h-.289zm0-.267h.294c.088 0 .154-.021.199-.062s.069-.1.069-.176v-.012a.266.266 0 0 0-.069-.179.263.263 0 0 0-.192-.075h-.302v.503zm2.085.138h-.633v.429h.743v.265h-1.072v-1.601h1.07v.267h-.741v.382h.633v.258zm1.53-.64h-.49v1.333h-.33v-1.333h-.483v-.267h1.304v.267zm1.152.64h-.633v.429h.743v.265h-1.073v-1.601h1.07v.267h-.74v.382h.633v.258zm.895.107h-.262v.586h-.33v-1.601h.595c.189 0 .335.042.437.127s.154.203.154.357a.498.498 0 0 1-.071.274.478.478 0 0 1-.211.172l-.003.001.346.654v.015h-.353l-.3-.585zm-.262-.267h.266a.275.275 0 0 0 .192-.062.227.227 0 0 0 .068-.163v-.012a.236.236 0 0 0-.065-.178c-.042-.043-.108-.065-.196-.065h-.265v.48zm1.937.433v-.009a.168.168 0 0 0-.066-.133.82.82 0 0 0-.237-.105 1.77 1.77 0 0 1-.281-.114l.009.004c-.182-.098-.273-.231-.273-.397 0-.086.025-.163.072-.231.049-.068.119-.121.21-.16s.194-.057.308-.057c.114 0 .216.021.306.063a.471.471 0 0 1 .282.432h-.33c0-.073-.023-.13-.069-.17s-.111-.062-.194-.062a.298.298 0 0 0-.188.052.16.16 0 0 0-.067.13v.003c0 .052.026.096.078.131s.13.068.232.098c.188.056.324.127.41.21s.128.188.128.312c0 .138-.053.248-.158.326s-.246.118-.423.118a.833.833 0 0 1-.336-.067.545.545 0 0 1-.231-.184l-.001-.001a.476.476 0 0 1-.079-.262V21.2h.33c0 .176.105.265.317.265a.32.32 0 0 0 .184-.047.157.157 0 0 0 .066-.128v-.006z"/></symbol><symbol id="icon-herb" viewBox="0 0 32 32"><path d="M14.032 1.806h-.084a9.985 9.985 0 0 0-.388-.014h-.28c-.244 0-.494.006-.741.018l-.028-.001-.029.001h.001a17.353 17.353 0 0 0-6.576 1.696l.104-.045-.266.128v13.626l.623-.212a23.32 23.32 0 0 1 1.731-.513c1.488-.398 3.202-.638 4.967-.661h.014v1.79c-.223.001-.439.007-.655.018h-.052a20.051 20.051 0 0 0-3.971.619l.139-.031a19.399 19.399 0 0 0-4.666 1.83l.1-.051V2.529A17.896 17.896 0 0 1 8.64.608L8.767.58a17.862 17.862 0 0 1 4.51-.582h.267c.314.008.622.022.91.044.829.06 1.597.187 2.339.378l-.09-.02v1.762a13.17 13.17 0 0 0-2.134-.326l-.045-.003-.044-.004c-.152-.013-.304-.026-.446-.026zm3.101 1.801c.391.03.796.044 1.205.044a19.413 19.413 0 0 0 4.881-.639l-.135.03a19.492 19.492 0 0 0 4.665-1.831l-.101.051v17.163a17.972 17.972 0 0 1-4.664 1.921l-.127.028a17.962 17.962 0 0 1-4.511.581h-.115c-1.177 0-2.319-.147-3.409-.425l.095.021V3.276c.265.062.537.118.814.164.455.077.934.133 1.401.167zm8.734.133-.623.209c-.572.193-1.151.365-1.731.518-1.551.415-3.332.657-5.169.663h-.004c-.406 0-.78-.011-1.141-.034l-.497-.033V19.08l.426.037c.395.035.803.052 1.214.052a16.554 16.554 0 0 0 4.189-.553l-.116.026a16.96 16.96 0 0 0 3.285-1.189l-.102.044.266-.128V3.739zM5.184 25.977a.916.916 0 0 0-.661-.281l-.034.001h.002-.014c-.139 0-.272.028-.393.078l.007-.003a.904.904 0 0 0-.51.512l-.002.006a1.001 1.001 0 0 0-.071.386v2.335c-.006.164.026.328.092.479.055.12.135.226.234.313a.824.824 0 0 0 .32.166c.114.031.231.048.349.048a.985.985 0 0 0 .968-.982v-.261H4.86v.222c0 .07-.013.136-.037.198l.001-.004a.38.38 0 0 1-.089.132.426.426 0 0 1-.255.089.308.308 0 0 1-.286-.125l-.001-.001a.548.548 0 0 1-.082-.289l.001-.024v.001-2.177a.74.74 0 0 1 .075-.349.31.31 0 0 1 .262-.143l.038.002h-.001.012c.107 0 .201.052.26.131l.001.001a.493.493 0 0 1 .101.3v.014-.001.202h.604v-.249c0-.143-.027-.28-.077-.405l.003.007a.955.955 0 0 0-.205-.329zm3.626-.026a1.051 1.051 0 0 0-1.058-.191.965.965 0 0 0-.557.511l-.002.006a1.08 1.08 0 0 0-.089.452v2.239c-.004.158.026.314.089.458a.888.888 0 0 0 .236.313.964.964 0 0 0 .322.197 1.049 1.049 0 0 0 1.059-.198l-.001.001a.948.948 0 0 0 .23-.313c.063-.144.093-.301.089-.458v-2.259c0-.156-.033-.305-.092-.439l.003.007a1.016 1.016 0 0 0-.23-.327zm-.285 3.018.002.035a.398.398 0 0 1-.123.289.446.446 0 0 1-.575 0l.001.001a.398.398 0 0 1-.121-.326v.002-2.239l-.001-.034a.4.4 0 0 1 .123-.289.446.446 0 0 1 .575 0l-.001-.001a.398.398 0 0 1 .121.326v-.002 2.24zm5.047 1v-4.24h-.586l-.771 2.244h-.01l-.777-2.244h-.58v4.239h.606V27.39h.011l.593 1.823h.302l.598-1.823h.01v2.578h.606zm3.441-3.942a.834.834 0 0 0-.342-.232 1.31 1.31 0 0 0-.416-.066h-.923v4.24h.604v-1.656h.311c.189.009.376-.031.545-.116a.88.88 0 0 0 .329-.32l.002-.004a1 1 0 0 0 .138-.369c.021-.133.033-.287.033-.444v-.04.002a2.426 2.426 0 0 0-.059-.606.906.906 0 0 0-.223-.39zm-.312 1.292a.538.538 0 0 1-.057.224l.001-.003a.342.342 0 0 1-.154.147l-.002.001a.617.617 0 0 1-.254.054l-.033-.001h-.274V26.3h.311l.029-.001c.088 0 .172.02.247.055l-.004-.002a.35.35 0 0 1 .141.154l.001.002a.62.62 0 0 1 .053.236v.282c0 .098.006.201 0 .291H16.7zm3.173-1.59h-.495l-.934 4.24h.604l.177-.911h.823l.178.911h.604l-.958-4.24zm-.557 2.752.297-1.537h.011l.295 1.537h-.604zm4.46-.198h-.011l-.912-2.554h-.581v4.24h.604v-2.55h.012l.923 2.549h.568v-4.239h-.604v2.554zm3.691-2.554-.486 1.686h-.012l-.486-1.686h-.639l.83 2.448v1.791h.604v-1.791l.83-2.447h-.64zM3.5 31.166h.291v.817h.198v-.817h.289v-.167H3.5v.168zm2.447-.168-.382.985h.21l.081-.224h.392l.084.224h.215l-.391-.985h-.21zm-.03.595.134-.365.134.365h-.268zm2.449.027h.228v.127a.378.378 0 0 1-.234.083h-.014a.25.25 0 0 1-.195-.094.406.406 0 0 1-.073-.234l.001-.023v.001c0-.219.095-.329.283-.329l.021-.001c.097 0 .178.067.201.157v.001l.194-.038c-.042-.192-.18-.289-.417-.289h-.013a.492.492 0 0 0-.331.127.48.48 0 0 0-.141.38v-.002.023c0 .132.048.254.127.347l-.001-.001c.087.09.209.146.343.146L8.377 32h-.001.016c.155 0 .296-.06.402-.157v-.388h-.426v.166zm2.471-.622h-.199v.985h.689v-.167h-.49v-.817zm2.089 0h-.199v.985h.199v-.985zm2.043.657-.404-.657h-.193v.985h.185v-.643l.396.643h.198v-.985h-.182v.658zm1.846-.106h.49v-.167h-.49v-.215h.527v-.168h-.727v.985h.747v-.167h-.548v-.266zm4.477-.163h-.388v-.388h-.197v.984h.197v-.431h.388v.431h.198v-.985h-.198v.388zm1.857.163h.492v-.167h-.492v-.215h.529v-.168h-.726v.985h.746v-.167h-.548v-.266zm2.519.001c.171-.027.258-.118.258-.274a.23.23 0 0 0-.096-.219h-.001a.555.555 0 0 0-.25-.059l-.04.001h-.415v.984h.198v-.412h.055c.039 0 .076.008.109.023l-.002-.001a.201.201 0 0 1 .07.072l.215.313h.236l-.12-.192a.704.704 0 0 0-.215-.235l-.002-.002zm-.199-.137h-.146v-.247h.156a.515.515 0 0 1 .205.024l-.004-.001a.13.13 0 0 1-.009.2.537.537 0 0 1-.164.025l-.039-.001h.002zm2.099.136h.49v-.167h-.49v-.215h.529v-.168h-.729v.985h.747v-.167h-.548v-.266z"/></symbol><symbol id="icon-instagram" viewBox="0 0 32 32"><path d="M31.968 9.408c-.074-1.701-.349-2.869-.742-3.882a7.839 7.839 0 0 0-1.85-2.837l-.001-.001A7.906 7.906 0 0 0 26.597.861l-.054-.018C25.524.449 24.362.176 22.661.101 20.949.019 20.405 0 16.059 0c-4.344 0-4.888.019-6.595.094-1.699.074-2.869.349-3.88.742a7.847 7.847 0 0 0-2.839 1.85l-.001.001A7.9 7.9 0 0 0 .919 5.465l-.018.054C.506 6.538.232 7.7.157 9.401c-.082 1.712-.101 2.256-.101 6.602 0 4.344.019 4.888.094 6.595.075 1.701.35 2.869.744 3.882a7.915 7.915 0 0 0 1.849 2.837l.001.001c.8.813 1.77 1.443 2.832 1.843 1.019.395 2.182.67 3.882.744 1.707.075 2.251.094 6.595.094 4.346 0 4.89-.019 6.595-.094 1.701-.074 2.869-.349 3.882-.742a8.237 8.237 0 0 0 4.664-4.628l.019-.055c.394-1.019.669-2.182.744-3.882.075-1.707.093-2.251.093-6.595s-.006-4.888-.08-6.595zm-2.88 13.066c-.07 1.563-.333 2.406-.55 2.97a5.341 5.341 0 0 1-3.004 3.024l-.036.012c-.56.219-1.411.482-2.968.55-1.688.075-2.194.094-6.464.094-4.269 0-4.782-.019-6.464-.094-1.563-.069-2.406-.331-2.97-.55a4.953 4.953 0 0 1-1.836-1.192l-.001-.001a4.978 4.978 0 0 1-1.184-1.803L3.6 25.45c-.218-.563-.48-1.413-.549-2.97-.075-1.688-.094-2.195-.094-6.464s.019-4.784.094-6.464c.069-1.563.331-2.406.549-2.97a4.897 4.897 0 0 1 1.198-1.837l.002-.002a4.972 4.972 0 0 1 1.806-1.182l.034-.011c.56-.219 1.411-.48 2.968-.55 1.688-.074 2.195-.093 6.464-.093 4.275 0 4.782.019 6.464.093 1.563.069 2.406.331 2.97.55a4.91 4.91 0 0 1 1.837 1.194c.531.52.938 1.144 1.195 1.84.218.56.48 1.411.549 2.968.075 1.688.094 2.194.094 6.464 0 4.269-.019 4.768-.094 6.458z"/><path d="M16.059 7.782a8.223 8.223 0 0 0-8.219 8.221v.002a8.222 8.222 0 1 0 16.444 0 8.222 8.222 0 0 0-8.222-8.222h-.002zm0 13.552a5.333 5.333 0 0 1 .001-10.666h.001a5.334 5.334 0 1 1 0 10.668zM26.525 7.458a1.92 1.92 0 0 1-3.84 0 1.92 1.92 0 0 1 3.84 0z"/></symbol><symbol id="icon-linkedin" viewBox="0 0 32 32"><path d="M31.992 32H32V20.262c0-5.741-1.237-10.163-7.947-10.163-3.227 0-5.392 1.77-6.277 3.45h-.093v-2.914h-6.365v21.363h6.627V21.42c0-2.786.528-5.48 3.978-5.48 3.398 0 3.448 3.179 3.448 5.658V32h6.621zM.528 10.635h6.635V32H.528V10.635zM3.843 0A3.843 3.843 0 0 0 0 3.843c0 2.12 1.722 3.878 3.843 3.878 2.12 0 3.842-1.757 3.842-3.878S5.965.002 3.844 0z"/></symbol><symbol id="icon-notebook" viewBox="0 0 32 32"><path fill="#2196f3" style="fill:var(--color1, #2196f3)" d="M14.926 14.965h1.066v4.798h-1.066v-4.798zm4.264 2.132h1.066v2.665H19.19v-2.665zm-8.529 1.599h1.066v1.066h-1.066v-1.066zm-3.198-.533h1.066v1.599H7.463v-1.599z"/><path fill="#212121" style="fill:var(--color2, #212121)" d="M1.599 28.291h25.586a1.6 1.6 0 0 0 1.599-1.599V24.56a1.6 1.6 0 0 0-1.599-1.599h-.533V9.667l3.028-2.868a1.608 1.608 0 1 0-.742-.752l-.004-.01-2.281 2.162v-1.23a1.6 1.6 0 0 0-1.599-1.599H3.731a1.6 1.6 0 0 0-1.599 1.599v15.992h-.533A1.6 1.6 0 0 0 0 24.56v2.132a1.6 1.6 0 0 0 1.599 1.599zM30.384 4.837a.533.533 0 0 1 0 1.066.533.533 0 0 1 0-1.066zM3.198 6.969c0-.294.239-.533.533-.533h21.323c.294 0 .533.239.533.533v2.239l-1.066 1.013V8.036a.534.534 0 0 0-.534-.534H4.798a.534.534 0 0 0-.534.533v13.327c0 .294.239.533.534.533h19.189a.534.534 0 0 0 .534-.533v-9.675l1.066-1.01V22.96H3.198V6.969zm4.798 6.93h-.005a1.6 1.6 0 1 0 1.112 2.748l1.853.93a.535.535 0 0 0 .636-.122l3.939-4.432 3.872 2.902a.534.534 0 0 0 .686-.039l3.365-3.188v8.131H5.331V8.568h18.123v2.661l-3.771 3.572-3.904-2.927a.534.534 0 0 0-.718.071v.001l-3.993 4.493-1.493-.746c.011-.064.017-.128.02-.193a1.6 1.6 0 0 0-1.599-1.599zm.533 1.599a.533.533 0 0 1-1.066 0 .533.533 0 0 1 1.066 0zm3.198 8.528h5.33v.533a.533.533 0 0 1-.533.533h-4.265a.533.533 0 0 1-.533-.533v-.533zm-10.66.534c0-.294.238-.533.533-.533h9.062v.533a1.6 1.6 0 0 0 1.599 1.599h4.265a1.6 1.6 0 0 0 1.599-1.599v-.533h9.062c.294 0 .533.239.533.533v2.132a.533.533 0 0 1-.533.533H1.601a.533.533 0 0 1-.533-.533V24.56z"/></symbol><symbol id="icon-phone" viewBox="0 0 32 32"><path d="M23 0H9C7.346 0 6 1.346 6 3v26c0 1.654 1.346 3 3 3h14c1.654 0 3-1.346 3-3V3c0-1.654-1.346-3-3-3zM9 2h14a1 1 0 0 1 1 1v21H8V3a1 1 0 0 1 1-1zm14 28H9a1 1 0 0 1-1-1v-3h16v3a1 1 0 0 1-1 1z"/></symbol><symbol id="icon-satelite" viewBox="0 0 32 32"><path fill="#212121" style="fill:var(--color2, #212121)" d="m30.859 22.098-8.443-8.505.937-4.616c.225.09.485.144.758.146h.033a2.16 2.16 0 1 0-2.029-1.42l-.005-.015-4.96.606L9.059.161a.53.53 0 0 0-.376-.16.536.536 0 0 0-.373.155L6.798 1.66a.535.535 0 0 0 0 .754l.814.825c-1.143 2.062-1.816 4.522-1.816 7.139 0 4.106 1.656 7.824 4.336 10.525l-.001-.001a.49.49 0 0 0 .146.097 2.986 2.986 0 0 0-.052.546v6.188h-6.4a2.669 2.669 0 0 0-2.667 2.666v1.067c0 .295.239.534.534.534h24.534a.534.534 0 0 0 .533-.534v-1.067a2.67 2.67 0 0 0-2.666-2.666h-6.4v-2.742a14.784 14.784 0 0 0 10.166-1.502l-.077.039.818.823a.534.534 0 0 0 .376.16.536.536 0 0 0 .373-.155l1.512-1.504a.535.535 0 0 0 0-.754zM23.366 6.233a1.067 1.067 0 1 1 .752 1.822h-.004a1.066 1.066 0 0 1-.747-1.822h-.002zM22.11 9.737l-.598 2.946-1.175-1.183 1.774-1.763zm-.606-.902-1.92 1.909-1.486-1.493 3.406-.416zM24.09 28.8a1.6 1.6 0 0 1 1.6 1.6v.534H2.224V30.4a1.6 1.6 0 0 1 1.6-1.6h20.267zm-7.467-2.134v1.067h-5.334v-1.067h5.334zM11.29 25.6v-4.053c0-1.294 1.196-2.346 2.666-2.346s2.667 1.053 2.667 2.346V25.6H11.29zm6.4-1.696v-2.357c0-1.882-1.675-3.413-3.733-3.413h-.058c-1.353 0-2.54.707-3.213 1.771l-.009.016a13.817 13.817 0 0 1-3.812-9.55c0-2.314.567-4.496 1.569-6.414l-.036.077L27 22.743c-1.823.947-3.979 1.502-6.266 1.502-1.079 0-2.128-.124-3.136-.357l.093.018zm11.289-.684L7.922 2.039l.754-.752 7.935 7.98c.004 0 .006.007.01.01l13.115 13.191-.757.752z"/><path fill="#2196f3" style="fill:var(--color1, #2196f3)" d="M13.961 20.267h-.007a1.6 1.6 0 0 0-.003 3.2h.007a1.6 1.6 0 0 0 .002-3.2zm.373 1.978a.534.534 0 1 1-.378-.912.533.533 0 0 1 .374.911h.005z"/></symbol><symbol id="icon-tag-line" viewBox="0 0 32 32"><path d="M16.107 15.629a.998.998 0 0 1-.208-.61l.002-.068v.003-.98c0-.3.068-.528.204-.684s.37-.234.701-.233c.311 0 .533.066.663.199a.81.81 0 0 1 .196.586v.23h-.557v-.234a1.167 1.167 0 0 0-.016-.228.227.227 0 0 0-.079-.135.324.324 0 0 0-.178-.053l-.025.001h.001l-.024-.001a.345.345 0 0 0-.19.057l.001-.001a.26.26 0 0 0-.092.148v.002a1.11 1.11 0 0 0-.022.223v.02-.001 1.188a.608.608 0 0 0 .071.333.251.251 0 0 0 .11.08h.002a.3.3 0 0 0 .11.021c.012 0 .024 0 .035-.002h-.001l.023.001a.305.305 0 0 0 .174-.055h-.001a.24.24 0 0 0 .083-.143v-.001c.013-.079.019-.159.017-.238v-.241h.557v.22l.002.058a.888.888 0 0 1-.196.559l.001-.002c-.128.145-.346.218-.667.218s-.563-.078-.7-.239zm2.321.01c-.141-.153-.211-.374-.211-.668v-1.03c0-.291.07-.511.211-.661s.376-.224.706-.223c.328 0 .562.075.703.223s.212.37.212.661v1.03c0 .291-.071.514-.214.668s-.376.23-.7.23-.564-.078-.706-.229zm.965-.247a.564.564 0 0 0 .067-.305v-1.261l.001-.034a.564.564 0 0 0-.068-.268l.001.003a.274.274 0 0 0-.112-.081h-.002a.294.294 0 0 0-.149-.018h.001a.297.297 0 0 0-.15.019l.002-.001a.264.264 0 0 0-.114.082.543.543 0 0 0-.067.299v1.267a.564.564 0 0 0 .067.305.34.34 0 0 0 .117.075.391.391 0 0 0 .289-.001l-.003.001a.346.346 0 0 0 .117-.075v-.006zm1.326-2.304h.6l.451 1.9.462-1.9h.584l.059 2.743h-.432l-.046-1.906-.445 1.906h-.346l-.461-1.913-.043 1.913h-.436l.054-2.743zm2.828 0h.935c.538 0 .808.259.808.779 0 .497-.284.746-.851.745h-.318v1.219h-.577l.003-2.743zm.798 1.172a.443.443 0 0 0 .318-.087.443.443 0 0 0 .083-.31v-.03a.879.879 0 0 0-.03-.225l.001.006a.2.2 0 0 0-.043-.075.235.235 0 0 0-.071-.054h-.001a.593.593 0 0 0-.227-.045l-.032.001h-.223v.82h.224zm1.777-1.172h.619l.636 2.743h-.538l-.126-.632h-.553l-.129.632h-.546l.636-2.743zm.529 1.792-.216-1.152-.216 1.152h.431zm1.239-1.792h.404l.773 1.565v-1.565h.479v2.743h-.384l-.778-1.633v1.633h-.495l.001-2.743zm2.777 1.696-.642-1.693h.541l.392 1.088.368-1.088h.53l-.635 1.694v1.046h-.554v-1.046zM16.998 17.03v.143h-.471v1.115h-.197v-1.115h-.473v-.143h1.141zm1.476 1.258h-.156a.067.067 0 0 1-.039-.012.064.064 0 0 1-.025-.029l-.136-.299h-.653l-.136.299a.075.075 0 0 1-.021.034.067.067 0 0 1-.039.012h-.156l.577-1.258h.201l.584 1.253zm-.956-.467h.544l-.231-.512a.851.851 0 0 1-.041-.112l-.001-.007a2.303 2.303 0 0 0-.021.067l-.021.053-.228.511zm1.95.343a.706.706 0 0 0 .284-.038l.077-.031v-.283h-.233a.044.044 0 0 1-.029-.011.028.028 0 0 1-.009-.01.02.02 0 0 1-.003-.011v-.097h.448v.482a.869.869 0 0 1-.237.101l-.006.001a1.037 1.037 0 0 1-.144.026 1.893 1.893 0 0 1-.169.008h-.007a.864.864 0 0 1-.289-.049l.006.002a.705.705 0 0 1-.232-.132l.001.001a.598.598 0 0 1-.147-.195l-.001-.004a.629.629 0 0 1-.053-.253v-.017c0-.092.019-.18.053-.259l-.001.004a.564.564 0 0 1 .149-.199.681.681 0 0 1 .231-.13 1.076 1.076 0 0 1 .469-.036.78.78 0 0 1 .354.147l-.055.078a.052.052 0 0 1-.019.017.06.06 0 0 1-.026.007.075.075 0 0 1-.036-.01.654.654 0 0 1-.06-.032l.003.002a.512.512 0 0 0-.074-.033l-.004-.001a.656.656 0 0 0-.102-.027h-.004a.861.861 0 0 0-.139-.011h-.015a.706.706 0 0 0-.221.036l.005-.001a.497.497 0 0 0-.17.099.452.452 0 0 0-.106.153l-.001.003a.586.586 0 0 0 .001.424l-.001-.004a.488.488 0 0 0 .284.258c.074.022.151.03.229.025zm1.839-.02h.63v.143h-.822v-1.258h.197l-.004 1.115zm1.285.144h-.197V17.03h.197v1.258zm.735-1.252a.097.097 0 0 1 .03.022l.843.948-.001-.022.001-.023v.001-.938h.172v1.263H24.266a.09.09 0 0 1-.037-.008.103.103 0 0 1-.031-.024l-.843-.948v.978h-.165v-1.258h.103c.011 0 .022.002.032.006zm2.497-.006v.138h-.699v.416h.566v.133h-.566v.43h.699v.138h-.902V17.03h.902zM5.15 9.26l8.761 2.147v7.526L5.15 16.787V9.26zm-.563-.642v8.534l9.883 2.424v-8.533L4.587 8.619z"/><path d="M9.885 23.537 0 21.111v-8.533l9.885 2.425v8.534zM4.751 9.163l8.646 2.121L9.72 14.46l-8.648-2.122 3.679-3.175zm-.164-.545L0 12.578l9.885 2.425 4.586-3.961-9.883-2.424zm5.854 14.439 4.031-3.481-4.031-.988v4.47z"/></symbol><symbol id="icon-twitter" viewBox="0 0 32 32"><path d="M32 6.078c-1.1.493-2.376.857-3.713 1.028l-.068.007a6.556 6.556 0 0 0 2.873-3.579l.013-.046a12.88 12.88 0 0 1-4.076 1.573l-.084.014A6.558 6.558 0 0 0 15.6 9.557v.004c0 .52.043 1.021.152 1.496-5.454-.266-10.28-2.88-13.522-6.861a6.524 6.524 0 0 0-.902 3.313v.001a6.57 6.57 0 0 0 2.914 5.451 6.453 6.453 0 0 1-2.994-.823l.033.017v.072a6.592 6.592 0 0 0 5.213 6.44l.043.008a6.403 6.403 0 0 1-1.662.215h-.061.003c-.419 0-.843-.024-1.242-.112.85 2.598 3.261 4.509 6.13 4.57a13.093 13.093 0 0 1-8.122 2.8H1.57h.001-.062c-.531 0-1.055-.034-1.569-.099l.061.006c2.826 1.846 6.287 2.944 10.004 2.944h.063-.003c12.072 0 18.672-10 18.672-18.669 0-.288-.01-.57-.024-.848a13.203 13.203 0 0 0 3.258-3.355l.03-.047z"/></symbol><symbol id="icon-yaco" viewBox="0 0 32 32"><path d="m6.085 0 4.771 4.517-8.857-.005v21.915h23.149v-8.379l4.766 4.512V.001H6.084zm18.854 17.517L11.411 4.71h13.528v12.807zm-4.2 5.703H5.663V8.482h1.066v13.74H20.74v.997zM9.224 29.345l-.557 1.147-.557-1.147h-.467l.813 1.529v.891h.422v-.891l.811-1.529h-.465zm.7 2.42.196-.564h.938l.197.564h.439l-.916-2.42H10.4l-.914 2.42h.437zm.664-1.906.351 1.004h-.701l.351-1.004zm2.218.945a.544.544 0 0 0-.091.303v.004c0 .204.072.37.214.497s.336.19.575.19a1 1 0 0 0 .618-.195l.136.161h.468l-.355-.421c.14-.191.209-.435.209-.733h-.351a.973.973 0 0 1-.101.444l-.468-.552.165-.12a.922.922 0 0 0 .249-.249l.002-.003a.53.53 0 0 0 .076-.275v-.013a.495.495 0 0 0-.169-.374h-.001a.61.61 0 0 0-.408-.157h-.025.001c-.195 0-.35.056-.465.166s-.173.259-.173.449c0 .078.018.157.054.241.038.083.104.184.197.302-.179.129-.3.24-.36.334zm1.092.536a.613.613 0 0 1-.382.136h-.02a.395.395 0 0 1-.27-.106.36.36 0 0 1-.108-.259v-.014.001c0-.129.067-.245.2-.346l.052-.037.528.624zm-.434-1.073c-.114-.141-.172-.257-.172-.351 0-.081.024-.148.07-.201a.239.239 0 0 1 .178-.081h.01-.001.009c.067 0 .127.026.173.068a.214.214 0 0 1 .072.161v.009a.3.3 0 0 1-.103.226l-.052.041-.184.127zm3.94 1.315c.166-.145.261-.347.286-.605h-.419c-.022.173-.075.296-.158.37s-.208.112-.372.112c-.18 0-.318-.069-.412-.206s-.14-.337-.14-.599v-.214c.003-.259.052-.453.15-.587a.494.494 0 0 1 .422-.201c.157 0 .276.039.357.116s.133.202.153.376h.419c-.027-.265-.121-.47-.285-.615s-.378-.218-.645-.218a.978.978 0 0 0-.525.142.925.925 0 0 0-.345.396l-.002.006a1.396 1.396 0 0 0-.122.576v.03-.001.226c.003.223.045.418.125.587s.193.298.339.39a.955.955 0 0 0 .511.136c.276 0 .497-.072.663-.216zm2.471-.339c.082-.18.123-.388.123-.625v-.158c0-.216-.047-.421-.131-.605l.004.009a.932.932 0 0 0-.35-.406l-.004-.002c-.152-.095-.326-.143-.524-.143s-.372.048-.525.144a.939.939 0 0 0-.354.414c-.079.175-.125.38-.125.595v.032-.002.136c.001.232.043.436.126.613a.95.95 0 0 0 .356.411.98.98 0 0 0 .525.143.971.971 0 0 0 .526-.143.941.941 0 0 0 .352-.413zm-.45-1.369c.102.143.152.349.152.618v.126c0 .272-.05.48-.151.622a.49.49 0 0 1-.429.213h-.017a.503.503 0 0 1-.413-.216l-.001-.002c-.104-.145-.155-.351-.155-.617v-.14c.002-.26.054-.462.156-.603a.498.498 0 0 1 .409-.215h.018-.001c.187 0 .33.072.431.214z"/></symbol></defs></svg>